<svg xmlns="http://www.w3.org/2000/svg" width="41" height="41" viewBox="0 0 41 41" fill="none"><path d="M41 20.5C41 9.19657 31.8034 0 20.5 0C9.19657 0 0 9.19657 0 20.5C0 31.8034 9.19657 41 20.5 41C31.8034 41 41 31.8034 41 20.5ZM2.04833 20.5C2.04833 10.3252 10.3252 2.04833 20.5 2.04833C30.6748 2.04833 38.9517 10.3252 38.9517 20.5C38.9517 30.6748 30.6748 38.9517 20.5 38.9517C10.3252 38.9517 2.04833 30.6748 2.04833 20.5Z" fill="white"></path><path d="M21.2274 30.1315L26.9878 24.3711C27.3891 23.9698 27.3891 23.326 26.9878 22.9247C26.5865 22.5234 25.9427 22.5234 25.5414 22.9247L21.5283 26.9378V11.5962C21.5283 11.0277 21.0685 10.5679 20.5 10.5679C19.9315 10.5679 19.4717 11.0277 19.4717 11.5962V26.9294L15.4586 22.9164C15.0573 22.5151 14.4135 22.5151 14.0122 22.9164C13.6109 23.3177 13.6109 23.9614 14.0122 24.3627L19.7726 30.1231C19.9733 30.3238 20.2325 30.4241 20.5 30.4241C20.7675 30.4241 21.0267 30.3321 21.2274 30.1315Z" fill="white"></path></svg>