<svg version="1.1" xmlns="http://www.w3.org/2000/svg" fill-rule="evenodd" clip-rule="evenodd" height="32" width="32" viewBox="0 0 1024 1024" style="width: 32px; height: 32px;"><path d="M221.969 220.491h585.104v585.104H221.969z" fill="#FFFFFF" class="active" style="fill: rgb(255, 255, 255);"></path><path d="M511.333 65.916c-246.954 0-447.154 200.199-447.154 447.154 0 247.022 200.199 447.154 447.154 447.154 247.022 0 447.154-200.132 447.154-447.154 0-246.955-200.132-447.154-447.154-447.154z m232.201 506.691c-0.255 0-0.511-0.064-0.83-0.064l-0.064 0.064H630.725V743.74c0 24.717-19.994 44.648-44.781 44.648h-141.94c-24.717 0-44.716-19.994-44.716-44.648V572.607l-113-0.064c-18.144-0.128-32.705-14.821-32.705-32.901a32.393 32.393 0 0 1 6.067-18.906v-0.063l2.042-2.619 208.566-263.886c10.348-13.734 26.701-22.612 45.164-22.612 19.034 0 35.898 9.389 46.12 23.892l207.738 262.8-1.28-0.512v0.064c5.237 5.811 8.494 13.414 8.494 21.785-0.063 18.201-14.752 33.022-32.96 33.022z m0 0z" fill="#020826" class="" style="fill: rgb(2, 8, 38);"></path></svg>