<?xml version="1.0" encoding="UTF-8" standalone="no"?>
<!DOCTYPE svg PUBLIC "-//W3C//DTD SVG 1.1//EN" "http://www.w3.org/Graphics/SVG/1.1/DTD/svg11.dtd">
<svg width="100%" height="100%" viewBox="0 0 400 98" version="1.1" xmlns="http://www.w3.org/2000/svg" xmlns:xlink="http://www.w3.org/1999/xlink" xml:space="preserve" xmlns:serif="http://www.serif.com/" style="fill-rule:evenodd;clip-rule:evenodd;stroke-linecap:round;stroke-linejoin:round;stroke-miterlimit:1.5;">
    <path d="M102.72,71.172L93.445,71.172L93.445,65.816C92.313,67.601 90.723,69.038 88.677,70.127C86.63,71.216 84.257,71.76 81.557,71.76C78.509,71.76 75.722,70.976 73.196,69.408C70.67,67.841 68.678,65.631 67.219,62.778C65.761,59.926 65.031,56.649 65.031,52.948C65.031,49.29 65.761,46.046 67.219,43.215C68.678,40.385 70.67,38.208 73.196,36.683C75.722,35.159 78.531,34.397 81.622,34.397C83.974,34.397 86.216,34.909 88.35,35.932C90.484,36.956 92.182,38.316 93.445,40.015L93.445,22.836L102.72,22.836L102.72,71.172ZM300.181,71.172L290.971,71.172L290.971,65.881C289.795,67.579 288.173,68.984 286.105,70.094C284.036,71.205 281.652,71.76 278.952,71.76C275.904,71.76 273.128,70.976 270.624,69.408C268.12,67.841 266.139,65.631 264.68,62.778C263.221,59.926 262.492,56.649 262.492,52.948C262.492,49.29 263.221,46.046 264.68,43.215C266.139,40.385 268.12,38.208 270.624,36.683C273.128,35.159 275.926,34.397 279.017,34.397C281.717,34.397 284.08,34.942 286.105,36.03C288.129,37.119 289.752,38.491 290.971,40.145L290.971,34.985L300.181,34.985L300.181,71.172ZM147.007,71.172L137.797,71.172L137.797,65.881C136.621,67.579 134.999,68.984 132.931,70.094C130.862,71.205 128.478,71.76 125.778,71.76C122.73,71.76 119.954,70.976 117.45,69.408C114.946,67.841 112.965,65.631 111.506,62.778C110.047,59.926 109.318,56.649 109.318,52.948C109.318,49.29 110.047,46.046 111.506,43.215C112.965,40.385 114.946,38.208 117.45,36.683C119.954,35.159 122.752,34.397 125.844,34.397C128.543,34.397 130.906,34.942 132.931,36.03C134.956,37.119 136.578,38.491 137.797,40.145L137.797,34.985L147.007,34.985L147.007,71.172ZM190.118,71.172L180.908,71.172L180.908,66.6C179.732,68.167 178.197,69.397 176.303,70.29C174.408,71.183 172.351,71.629 170.13,71.629C167.3,71.629 164.796,71.03 162.618,69.833C160.441,68.635 158.732,66.872 157.491,64.542C156.25,62.212 155.629,59.436 155.629,56.214L155.629,34.985L164.774,34.985L164.774,54.907C164.774,57.782 165.492,59.992 166.929,61.537C168.366,63.083 170.326,63.856 172.808,63.856C175.334,63.856 177.315,63.083 178.752,61.537C180.189,59.992 180.908,57.782 180.908,54.907L180.908,34.985L190.118,34.985L190.118,71.172ZM329.379,44.064L326.962,44.064C324.088,44.064 321.921,44.739 320.463,46.089C319.004,47.439 318.274,49.791 318.274,53.144L318.274,71.172L309.13,71.172L309.13,34.985L318.274,34.985L318.274,40.603C319.45,38.687 320.985,37.184 322.879,36.096C324.774,35.007 326.94,34.463 329.379,34.463L329.379,44.064ZM252.563,71.172L243.288,71.172L243.288,42.497L239.173,42.497L239.173,34.985L243.288,34.985L243.288,33.156C243.288,28.714 244.551,25.448 247.076,23.358C249.602,21.268 253.412,20.288 258.507,20.419L258.507,28.127C256.286,28.083 254.74,28.453 253.869,29.237C252.999,30.021 252.563,31.436 252.563,33.483L252.563,34.985L258.899,34.985L258.899,42.497L252.563,42.497L252.563,71.172ZM208.277,71.172L199.132,71.172L199.132,34.985L208.277,34.985L208.277,39.492C209.496,37.924 211.053,36.694 212.947,35.802C214.841,34.909 216.92,34.463 219.185,34.463C223.496,34.463 226.98,35.823 229.636,38.545C232.292,41.267 233.62,45.066 233.62,49.943L233.62,71.172L224.476,71.172L224.476,51.184C224.476,48.31 223.757,46.1 222.32,44.554C220.883,43.008 218.924,42.236 216.441,42.236C213.916,42.236 211.924,43.008 210.465,44.554C209.006,46.1 208.277,48.31 208.277,51.184L208.277,71.172ZM344.663,71.172L335.519,71.172L335.519,34.985L344.663,34.985L344.663,39.361C345.839,37.837 347.352,36.64 349.203,35.769C351.054,34.898 353.09,34.463 355.31,34.463C358.141,34.463 360.667,35.061 362.887,36.259C365.108,37.456 366.828,39.166 368.048,41.386C369.223,39.296 370.933,37.62 373.175,36.357C375.418,35.094 377.846,34.463 380.458,34.463C384.9,34.463 388.482,35.823 391.203,38.545C393.925,41.267 395.286,45.066 395.286,49.943L395.286,71.172L386.141,71.172L386.141,51.184C386.141,48.354 385.423,46.187 383.986,44.685C382.549,43.183 380.589,42.431 378.107,42.431C375.625,42.431 373.654,43.183 372.195,44.685C370.737,46.187 370.007,48.354 370.007,51.184L370.007,71.172L360.863,71.172L360.863,51.184C360.863,48.354 360.144,46.187 358.707,44.685C357.27,43.183 355.31,42.431 352.828,42.431C350.303,42.431 348.31,43.183 346.852,44.685C345.393,46.187 344.663,48.354 344.663,51.184L344.663,71.172ZM93.51,53.079C93.51,50.858 93.075,48.953 92.204,47.363C91.333,45.774 90.157,44.554 88.677,43.705C87.196,42.856 85.607,42.431 83.908,42.431C82.21,42.431 80.643,42.845 79.206,43.673C77.768,44.5 76.604,45.708 75.711,47.298C74.818,48.887 74.372,50.771 74.372,52.948C74.372,55.125 74.818,57.03 75.711,58.663C76.604,60.296 77.779,61.548 79.238,62.419C80.697,63.29 82.254,63.726 83.908,63.726C85.607,63.726 87.196,63.301 88.677,62.452C90.157,61.603 91.333,60.383 92.204,58.794C93.075,57.205 93.51,55.299 93.51,53.079ZM290.971,53.079C290.971,50.858 290.535,48.953 289.664,47.363C288.794,45.774 287.618,44.554 286.137,43.705C284.657,42.856 283.067,42.431 281.369,42.431C279.671,42.431 278.103,42.845 276.666,43.673C275.229,44.5 274.064,45.708 273.171,47.298C272.279,48.887 271.832,50.771 271.832,52.948C271.832,55.125 272.279,57.03 273.171,58.663C274.064,60.296 275.24,61.548 276.699,62.419C278.157,63.29 279.714,63.726 281.369,63.726C283.067,63.726 284.657,63.301 286.137,62.452C287.618,61.603 288.794,60.383 289.664,58.794C290.535,57.205 290.971,55.299 290.971,53.079ZM137.797,53.079C137.797,50.858 137.362,48.953 136.491,47.363C135.62,45.774 134.444,44.554 132.963,43.705C131.483,42.856 129.893,42.431 128.195,42.431C126.497,42.431 124.929,42.845 123.492,43.673C122.055,44.5 120.89,45.708 119.997,47.298C119.105,48.887 118.658,50.771 118.658,52.948C118.658,55.125 119.105,57.03 119.997,58.663C120.89,60.296 122.066,61.548 123.525,62.419C124.983,63.29 126.54,63.726 128.195,63.726C129.893,63.726 131.483,63.301 132.963,62.452C134.444,61.603 135.62,60.383 136.491,58.794C137.362,57.205 137.797,55.299 137.797,53.079Z" style="fill:white;fill-rule:nonzero;"/>
    <g transform="matrix(2.03046,0,0,2.03046,0,0)">
        <path d="M0,10C8.279,10 15,16.721 15,25C15,33.279 8.279,40 0,40C-8.279,40 -15,33.279 -15,25C-15,16.721 -8.279,10 0,10ZM0,15C5.519,15 10,19.481 10,25C10,30.519 5.519,35 0,35C-5.519,35 -10,30.519 -10,25C-10,19.481 -5.519,15 0,15ZM0,20C2.76,20 5,22.24 5,25C5,27.76 2.76,30 0,30C-2.76,30 -5,27.76 -5,25C-5,22.24 -2.76,20 0,20Z" style="fill:none;stroke:rgb(85,178,89);stroke-width:1.97px;"/>
    </g>
</svg>
