<svg height='100px' width='100px'  fill="#000000" xmlns="http://www.w3.org/2000/svg" viewBox="0 0 48 48" x="0px" y="0px"><title>27. Climate Change</title><g data-name="27. Climate Change"><path d="M42.74,14.68c5.31-2,3.68-10-2-9.67C38.43-2.72,27-1,27,7A18,18,0,0,0,14,13.7V7A5,5,0,0,0,4,7V22.11c-5.41,5.51.92,14.61,8,11.17a17.7,17.7,0,0,0,3.33,4.5A6.91,6.91,0,0,0,15,40.13C10.46,41.3,11.34,48,16,48c14.23,0,14,.23,15.51-.68A5,5,0,0,0,33.89,42,18,18,0,0,0,42.74,14.68ZM39,31.65a2.62,2.62,0,0,1-2,1.12c-1.08-1.26,1.41-3.66.18-6.3-.8-1.73-2.54-2.12-4.43-2.19-1.39,0-1.91-.06-2.28-1.89-.53-2.62,5-3.08,3.78-7.39h6.22a15.88,15.88,0,0,1,2.95,5.71C36.72,23.74,41,28.68,39,31.65ZM34,2a5,5,0,0,1,4.94,4.29,1,1,0,0,0,.45.7c.79.51,1.66-.55,3.25.51A3,3,0,0,1,41,13H28a2,2,0,1,1,.09-4,1,1,0,0,0,1-1.17A5,5,0,0,1,34,2ZM24.33,9.43A3.75,3.75,0,0,0,24.15,12a2.43,2.43,0,0,0-1,.27c-3.13,1.56,1.35,5.21.17,6.7-.45.57-2.57.05-3.87.69-3,1.47-.27,6.29-3.72,5.33A7,7,0,0,0,14,22.11V17.27A16,16,0,0,1,24.33,9.43ZM7.92,31.89a5,5,0,0,1-2.25-8.61C6.14,22.86,6,23.85,6,7c0-4,6-4,6,0,0,16.86-.14,15.86.33,16.28A5,5,0,0,1,7.92,31.89ZM31.81,44A3,3,0,0,1,29,46H16a2,2,0,0,1,0-4,1,1,0,0,0,.79-.24c.55-.48.25-.95.25-1.76,0-6.19,9.1-6.8,9.94-.71a1,1,0,0,0,1.27.82A3,3,0,0,1,31.81,44ZM21.14,32.84a3.13,3.13,0,0,1-1.12-.9,2,2,0,0,1,.2-1.93c1-1.2,3.45.41,3.93,1.35,1,1.94,3.46,1,3.68,1.45.53,1.14-.81.93-1.9,1.42C23.52,32.59,21.75,33.22,21.14,32.84Zm12,7.31A5,5,0,0,0,28.71,38a7.11,7.11,0,0,0-1.13-2.21c2.26-.66,2.83-2.17,2.07-3.83-.93-2-3.45-1-3.72-1.51a6.56,6.56,0,0,0-3.6-2.73,3.54,3.54,0,0,0-3.4,6,7,7,0,0,0-2.6,2.19,15.56,15.56,0,0,1-2.61-3.75A7,7,0,0,0,16,27.05c4.86.3,3.16-5,4.32-5.59.85-.43,7.57.94,4.12-6.31-.64-1.36-.71-1.31,1.28-.87,1.3.91,2,.72,6.45.72.3,1.2.57,1.43-.45,2.45s-3.82,2.37-3.22,5.34c.89,4.45,4,3.1,5.83,3.71,1.39.46,1.41,1.76.87,3.11-.93,2.34-.44,5.16,1.91,5.16a4.66,4.66,0,0,0,3.55-2c2.69-4.05-1.68-7.39,3.16-10A16,16,0,0,1,33.11,40.15Z"></path><path d="M10,24.18V19a1,1,0,0,0-2,0v5.18a3,3,0,1,0,2,0ZM9,28a1,1,0,0,1,0-2A1,1,0,0,1,9,28Z"></path></g></svg>